<?xml version="1.0" encoding="utf-8"?>
<svg version="1.1" id="Layer_1" xmlns="http://www.w3.org/2000/svg" xmlns:xlink="http://www.w3.org/1999/xlink" x="0px" y="0px"
	 viewBox="0 0 16 32" style="enable-background:new 0 0 16 32;" xml:space="preserve">
<style type="text/css">
	.st0{fill:#222222;}
	.st1{fill:none;stroke:#5C50BB;stroke-width:2;stroke-linecap:round;stroke-linejoin:round;}
</style>
<path class="st0" d="M14.7,3.4H6.4C6,3.4,5.7,3.1,5.7,2.7S6,2.1,6.4,2.1h8.3c0.4,0,0.7,0.3,0.7,0.7S15.1,3.4,14.7,3.4z"/>
<path class="st0" d="M3.5,3.4H1.3c-0.4,0-0.7-0.3-0.7-0.7s0.3-0.7,0.7-0.7h2.2c0.4,0,0.7,0.3,0.7,0.7S3.9,3.4,3.5,3.4z"/>
<path class="st0" d="M5,4.9c-1.1,0-2.1-0.9-2.1-2.1C2.9,1.6,3.8,0.7,5,0.7c1.1,0,2.1,0.9,2.1,2.1C7.1,3.9,6.1,4.9,5,4.9z M5,2
	C4.5,2,4.2,2.3,4.2,2.7s0.3,0.7,0.7,0.7s0.7-0.3,0.7-0.7C5.7,2.3,5.4,2,5,2z"/>
<path class="st0" d="M14.7,13.7H6.4c-0.4,0-0.7-0.3-0.7-0.7c0-0.4,0.3-0.7,0.7-0.7h8.3c0.4,0,0.7,0.3,0.7,0.7
	C15.3,13.5,15.1,13.7,14.7,13.7z"/>
<path class="st0" d="M3.5,13.7H1.3c-0.4,0-0.7-0.3-0.7-0.7c0-0.4,0.3-0.7,0.7-0.7h2.2c0.4,0,0.7,0.3,0.7,0.7
	C4.2,13.5,3.9,13.7,3.5,13.7z"/>
<path class="st0" d="M5,15.2c-1.1,0-2.1-0.9-2.1-2.1C2.9,11.9,3.9,11,5,11s2.1,0.9,2.1,2.1C7.1,14.3,6.1,15.2,5,15.2z M5,12.3
	c-0.4,0-0.7,0.3-0.7,0.7c0,0.4,0.3,0.8,0.7,0.8s0.7-0.3,0.7-0.8C5.7,12.7,5.4,12.3,5,12.3z"/>
<path class="st0" d="M9.6,8.6H1.3c-0.4,0-0.7-0.3-0.7-0.7s0.3-0.7,0.7-0.7h8.3c0.4,0,0.7,0.3,0.7,0.7S9.9,8.6,9.6,8.6z"/>
<path class="st0" d="M14.7,8.6h-2.2c-0.4,0-0.7-0.3-0.7-0.7s0.3-0.7,0.7-0.7h2.2c0.4,0,0.7,0.3,0.7,0.7S15.1,8.6,14.7,8.6z"/>
<path class="st0" d="M11,10c-1.1,0-2.1-0.9-2.1-2.1c0-1.1,0.9-2.1,2.1-2.1c1.1,0,2.1,0.9,2.1,2.1C13.1,9.1,12.2,10,11,10z M11,7.2
	c-0.4,0-0.7,0.3-0.7,0.7s0.3,0.8,0.7,0.8s0.7-0.3,0.7-0.8C11.8,7.5,11.5,7.2,11,7.2z"/>
<path class="st1" d="M3.3,19.1l10,10"/>
<path class="st1" d="M3.3,29.1l10-10"/>
</svg>
