<svg width="16" height="16" viewBox="0 0 16 16" fill="none" xmlns="http://www.w3.org/2000/svg">
<path d="M14.6666 3.40033H6.39996C5.99996 3.40033 5.73329 3.13366 5.73329 2.73366C5.73329 2.33366 5.99996 2.06699 6.39996 2.06699H14.6666C15.0666 2.06699 15.3333 2.33366 15.3333 2.73366C15.3333 3.13366 15.0666 3.40033 14.6666 3.40033Z" fill="#222222"/>
<path d="M3.53329 3.40033H1.33329C0.933293 3.40033 0.666626 3.13366 0.666626 2.73366C0.666626 2.33366 0.933293 2.06699 1.33329 2.06699H3.53329C3.93329 2.06699 4.19996 2.33366 4.19996 2.73366C4.19996 3.13366 3.93329 3.40033 3.53329 3.40033Z" fill="#222222"/>
<path d="M4.99996 4.86699C3.86663 4.86699 2.93329 3.93366 2.93329 2.80033C2.86663 1.60033 3.79996 0.666992 4.99996 0.666992C6.13329 0.666992 7.06663 1.60033 7.06663 2.73366C7.06663 3.93366 6.13329 4.86699 4.99996 4.86699ZM4.99996 2.00033C4.53329 2.00033 4.19996 2.33366 4.19996 2.73366C4.19996 3.13366 4.53329 3.46699 4.93329 3.46699C5.33329 3.46699 5.66663 3.13366 5.66663 2.73366C5.73329 2.33366 5.39996 2.00033 4.99996 2.00033Z" fill="#222222"/>
<path d="M14.6666 13.7337H6.39996C5.99996 13.7337 5.73329 13.467 5.73329 13.067C5.73329 12.667 5.99996 12.4003 6.39996 12.4003H14.6666C15.0666 12.4003 15.3333 12.667 15.3333 13.067C15.3333 13.467 15.0666 13.7337 14.6666 13.7337Z" fill="#222222"/>
<path d="M3.53329 13.7337H1.33329C0.933293 13.7337 0.666626 13.467 0.666626 13.067C0.666626 12.667 0.933293 12.4003 1.33329 12.4003H3.53329C3.93329 12.4003 4.19996 12.667 4.19996 13.067C4.19996 13.467 3.93329 13.7337 3.53329 13.7337Z" fill="#222222"/>
<path d="M4.99996 15.2003C3.86663 15.2003 2.93329 14.267 2.93329 13.067C2.93329 11.9337 3.86663 11.0003 4.99996 11.0003C6.13329 11.0003 7.06663 11.9337 7.06663 13.067C7.06663 14.267 6.13329 15.2003 4.99996 15.2003ZM4.99996 12.3337C4.59996 12.3337 4.26663 12.667 4.26663 13.067C4.26663 13.467 4.59996 13.867 4.99996 13.867C5.39996 13.867 5.73329 13.5337 5.73329 13.067C5.73329 12.667 5.39996 12.3337 4.99996 12.3337Z" fill="#222222"/>
<path d="M9.59996 8.60033H1.33329C0.933293 8.60033 0.666626 8.33366 0.666626 7.93366C0.666626 7.53366 0.933293 7.26699 1.33329 7.26699H9.59996C9.99996 7.26699 10.2666 7.53366 10.2666 7.93366C10.2666 8.33366 9.93329 8.60033 9.59996 8.60033Z" fill="#222222"/>
<path d="M14.6666 8.60033H12.4666C12.0666 8.60033 11.8 8.33366 11.8 7.93366C11.8 7.53366 12.0666 7.26699 12.4666 7.26699H14.6666C15.0666 7.26699 15.3333 7.53366 15.3333 7.93366C15.3333 8.33366 15.0666 8.60033 14.6666 8.60033Z" fill="#222222"/>
<path d="M11 10.0003C9.86663 10.0003 8.93329 9.06699 8.93329 7.86699C8.93329 6.73366 9.86663 5.80033 11 5.80033C12.1333 5.80033 13.0666 6.73366 13.0666 7.86699C13.1333 9.06699 12.2 10.0003 11 10.0003ZM11 7.20033C10.6 7.20033 10.2666 7.53366 10.2666 7.93366C10.2666 8.33366 10.6 8.73366 11 8.73366C11.4 8.73366 11.7333 8.40033 11.7333 7.93366C11.8 7.53366 11.4666 7.20033 11 7.20033Z" fill="#222222"/>
</svg>
